<mxfile host="Electron" agent="Mozilla/5.0 (Windows NT 10.0; Win64; x64) AppleWebKit/537.36 (KHTML, like Gecko) draw.io/28.0.6 Chrome/138.0.7204.100 Electron/37.2.3 Safari/537.36" version="28.0.6">
  <diagram name="Page-1" id="CTv7H4BbikqfqBvuobzC">
    <mxGraphModel dx="983" dy="580" grid="1" gridSize="10" guides="1" tooltips="1" connect="1" arrows="1" fold="1" page="1" pageScale="1" pageWidth="827" pageHeight="1169" math="0" shadow="0">
      <root>
        <mxCell id="0" />
        <mxCell id="1" parent="0" />
        <mxCell id="_-So-G6JZP1gXvLWuwMC-1" value="&lt;b&gt;&lt;font style=&quot;font-size: 18px;&quot;&gt;Data Flow Diagram&lt;/font&gt;&lt;/b&gt;" style="rounded=0;whiteSpace=wrap;html=1;fillColor=none;strokeColor=none;" parent="1" vertex="1">
          <mxGeometry x="10" y="10" width="330" height="60" as="geometry" />
        </mxCell>
        <mxCell id="_-So-G6JZP1gXvLWuwMC-2" value="" style="rounded=0;whiteSpace=wrap;html=1;fillColor=none;dashed=1;" parent="1" vertex="1">
          <mxGeometry x="111" y="120" width="140" height="380" as="geometry" />
        </mxCell>
        <mxCell id="_-So-G6JZP1gXvLWuwMC-3" value="&lt;font style=&quot;font-size: 18px;&quot;&gt;Sources&lt;/font&gt;" style="rounded=1;whiteSpace=wrap;html=1;fillColor=default;strokeColor=none;" parent="1" vertex="1">
          <mxGeometry x="120" y="90" width="120" height="60" as="geometry" />
        </mxCell>
        <mxCell id="_-So-G6JZP1gXvLWuwMC-20" style="edgeStyle=orthogonalEdgeStyle;rounded=0;orthogonalLoop=1;jettySize=auto;html=1;" parent="1" source="_-So-G6JZP1gXvLWuwMC-4" target="_-So-G6JZP1gXvLWuwMC-17" edge="1">
          <mxGeometry relative="1" as="geometry" />
        </mxCell>
        <mxCell id="_-So-G6JZP1gXvLWuwMC-21" style="edgeStyle=orthogonalEdgeStyle;rounded=0;orthogonalLoop=1;jettySize=auto;html=1;entryX=0;entryY=0.5;entryDx=0;entryDy=0;" parent="1" source="_-So-G6JZP1gXvLWuwMC-4" target="_-So-G6JZP1gXvLWuwMC-18" edge="1">
          <mxGeometry relative="1" as="geometry" />
        </mxCell>
        <mxCell id="_-So-G6JZP1gXvLWuwMC-4" value="" style="image;aspect=fixed;html=1;points=[];align=center;fontSize=12;image=img/lib/azure2/general/Folder_Blank.svg;" parent="1" vertex="1">
          <mxGeometry x="152.75" y="241.77" width="54.5" height="44.23" as="geometry" />
        </mxCell>
        <mxCell id="_-So-G6JZP1gXvLWuwMC-8" value="&lt;font&gt;SAP&lt;/font&gt;" style="rounded=1;whiteSpace=wrap;html=1;fillColor=none;strokeColor=none;fontSize=11;" parent="1" vertex="1">
          <mxGeometry x="121" y="266" width="120" height="20" as="geometry" />
        </mxCell>
        <mxCell id="_-So-G6JZP1gXvLWuwMC-11" value="Bronze Layer" style="rounded=1;whiteSpace=wrap;html=1;fillColor=#fad7ac;strokeColor=#b46504;fontSize=16;" parent="1" vertex="1">
          <mxGeometry x="362" y="120" width="158" height="30" as="geometry" />
        </mxCell>
        <mxCell id="_-So-G6JZP1gXvLWuwMC-12" value="" style="rounded=0;whiteSpace=wrap;html=1;fillColor=none;strokeColor=#b46504;fontSize=16;" parent="1" vertex="1">
          <mxGeometry x="362" y="160" width="158" height="340" as="geometry" />
        </mxCell>
        <mxCell id="ldsSTnJfSurYdlAkaAct-9" style="edgeStyle=orthogonalEdgeStyle;rounded=0;orthogonalLoop=1;jettySize=auto;html=1;" parent="1" target="ldsSTnJfSurYdlAkaAct-3" edge="1">
          <mxGeometry relative="1" as="geometry">
            <mxPoint x="510" y="205" as="sourcePoint" />
          </mxGeometry>
        </mxCell>
        <mxCell id="ldsSTnJfSurYdlAkaAct-10" style="edgeStyle=orthogonalEdgeStyle;rounded=0;orthogonalLoop=1;jettySize=auto;html=1;exitX=1;exitY=0.5;exitDx=0;exitDy=0;" parent="1" source="_-So-G6JZP1gXvLWuwMC-17" target="ldsSTnJfSurYdlAkaAct-4" edge="1">
          <mxGeometry relative="1" as="geometry" />
        </mxCell>
        <mxCell id="_-So-G6JZP1gXvLWuwMC-17" value="sap_ess" style="rounded=1;whiteSpace=wrap;html=1;fillColor=#fad7ac;strokeColor=#b46504;fontSize=10;" parent="1" vertex="1">
          <mxGeometry x="371" y="230" width="139" height="30" as="geometry" />
        </mxCell>
        <mxCell id="ldsSTnJfSurYdlAkaAct-11" style="edgeStyle=orthogonalEdgeStyle;rounded=0;orthogonalLoop=1;jettySize=auto;html=1;exitX=1;exitY=0.5;exitDx=0;exitDy=0;" parent="1" source="_-So-G6JZP1gXvLWuwMC-18" target="ldsSTnJfSurYdlAkaAct-5" edge="1">
          <mxGeometry relative="1" as="geometry" />
        </mxCell>
        <mxCell id="_-So-G6JZP1gXvLWuwMC-18" value="sap_wbs" style="rounded=1;whiteSpace=wrap;html=1;fillColor=#fad7ac;strokeColor=#b46504;fontSize=10;" parent="1" vertex="1">
          <mxGeometry x="371" y="270" width="139" height="30" as="geometry" />
        </mxCell>
        <mxCell id="_-So-G6JZP1gXvLWuwMC-24" style="edgeStyle=orthogonalEdgeStyle;rounded=0;orthogonalLoop=1;jettySize=auto;html=1;" parent="1" source="_-So-G6JZP1gXvLWuwMC-27" target="_-So-G6JZP1gXvLWuwMC-30" edge="1">
          <mxGeometry relative="1" as="geometry" />
        </mxCell>
        <mxCell id="_-So-G6JZP1gXvLWuwMC-27" value="" style="image;aspect=fixed;html=1;points=[];align=center;fontSize=12;image=img/lib/azure2/general/Folder_Blank.svg;" parent="1" vertex="1">
          <mxGeometry x="153.75" y="382.89" width="54.5" height="44.23" as="geometry" />
        </mxCell>
        <mxCell id="_-So-G6JZP1gXvLWuwMC-28" value="&lt;font&gt;WFM&lt;/font&gt;" style="rounded=1;whiteSpace=wrap;html=1;fillColor=none;strokeColor=none;fontSize=11;" parent="1" vertex="1">
          <mxGeometry x="121" y="426" width="120" height="20" as="geometry" />
        </mxCell>
        <mxCell id="ldsSTnJfSurYdlAkaAct-12" style="edgeStyle=orthogonalEdgeStyle;rounded=0;orthogonalLoop=1;jettySize=auto;html=1;" parent="1" target="ldsSTnJfSurYdlAkaAct-6" edge="1">
          <mxGeometry relative="1" as="geometry">
            <mxPoint x="510" y="365" as="sourcePoint" />
          </mxGeometry>
        </mxCell>
        <mxCell id="ldsSTnJfSurYdlAkaAct-13" style="edgeStyle=orthogonalEdgeStyle;rounded=0;orthogonalLoop=1;jettySize=auto;html=1;" parent="1" source="_-So-G6JZP1gXvLWuwMC-30" target="ldsSTnJfSurYdlAkaAct-7" edge="1">
          <mxGeometry relative="1" as="geometry" />
        </mxCell>
        <mxCell id="_-So-G6JZP1gXvLWuwMC-30" value="wfm_employees" style="rounded=1;whiteSpace=wrap;html=1;fillColor=#fad7ac;strokeColor=#b46504;fontSize=10;" parent="1" vertex="1">
          <mxGeometry x="371" y="390" width="139" height="30" as="geometry" />
        </mxCell>
        <mxCell id="ldsSTnJfSurYdlAkaAct-14" style="edgeStyle=orthogonalEdgeStyle;rounded=0;orthogonalLoop=1;jettySize=auto;html=1;" parent="1" target="ldsSTnJfSurYdlAkaAct-8" edge="1">
          <mxGeometry relative="1" as="geometry">
            <mxPoint x="510" y="445" as="sourcePoint" />
          </mxGeometry>
        </mxCell>
        <mxCell id="ldsSTnJfSurYdlAkaAct-1" value="Silver Layer" style="rounded=1;whiteSpace=wrap;html=1;fillColor=#f5f5f5;strokeColor=#666666;fontSize=16;gradientColor=#b3b3b3;" parent="1" vertex="1">
          <mxGeometry x="610" y="120" width="158" height="30" as="geometry" />
        </mxCell>
        <mxCell id="ldsSTnJfSurYdlAkaAct-2" value="" style="rounded=0;whiteSpace=wrap;html=1;fillColor=none;fontSize=16;strokeColor=default;" parent="1" vertex="1">
          <mxGeometry x="610" y="160" width="158" height="340" as="geometry" />
        </mxCell>
        <mxCell id="ldsSTnJfSurYdlAkaAct-4" value="sap_ess" style="rounded=1;whiteSpace=wrap;html=1;fillColor=#f5f5f5;strokeColor=#666666;fontSize=10;gradientColor=#b3b3b3;" parent="1" vertex="1">
          <mxGeometry x="619" y="230" width="139" height="30" as="geometry" />
        </mxCell>
        <mxCell id="ldsSTnJfSurYdlAkaAct-5" value="sap_wbs" style="rounded=1;whiteSpace=wrap;html=1;fillColor=#f5f5f5;strokeColor=#666666;fontSize=10;gradientColor=#b3b3b3;" parent="1" vertex="1">
          <mxGeometry x="619" y="270" width="139" height="30" as="geometry" />
        </mxCell>
        <mxCell id="ldsSTnJfSurYdlAkaAct-7" value="wfm_employees" style="rounded=1;whiteSpace=wrap;html=1;fillColor=#f5f5f5;strokeColor=#666666;fontSize=10;gradientColor=#b3b3b3;" parent="1" vertex="1">
          <mxGeometry x="619" y="390" width="139" height="30" as="geometry" />
        </mxCell>
        <mxCell id="UxqbFNiShDq20qU9HtJH-1" value="Gold Layer" style="rounded=1;whiteSpace=wrap;html=1;fillColor=light-dark(#ffffff, #281d00);strokeColor=#d6b656;fontSize=16;gradientColor=#ffd966;" parent="1" vertex="1">
          <mxGeometry x="850" y="120" width="158" height="30" as="geometry" />
        </mxCell>
        <mxCell id="UxqbFNiShDq20qU9HtJH-2" value="" style="rounded=0;whiteSpace=wrap;html=1;fillColor=none;fontSize=16;strokeColor=#d6b656;gradientColor=#ffd966;" parent="1" vertex="1">
          <mxGeometry x="850" y="160" width="158" height="340" as="geometry" />
        </mxCell>
        <mxCell id="UxqbFNiShDq20qU9HtJH-4" value="fact_current_year" style="rounded=1;whiteSpace=wrap;html=1;fillColor=light-dark(#ffffff, #281d00);strokeColor=#d6b656;fontSize=10;gradientColor=#ffd966;" parent="1" vertex="1">
          <mxGeometry x="859.5" y="240" width="139" height="30" as="geometry" />
        </mxCell>
        <mxCell id="UxqbFNiShDq20qU9HtJH-5" value="fact_time_all" style="rounded=1;whiteSpace=wrap;html=1;fillColor=light-dark(#ffffff, #281d00);strokeColor=#d6b656;fontSize=10;gradientColor=#ffd966;" parent="1" vertex="1">
          <mxGeometry x="859.5" y="330" width="139" height="30" as="geometry" />
        </mxCell>
        <mxCell id="UxqbFNiShDq20qU9HtJH-10" value="" style="endArrow=classic;html=1;rounded=0;exitX=1;exitY=0.5;exitDx=0;exitDy=0;entryX=0;entryY=0.5;entryDx=0;entryDy=0;jumpStyle=gap;" parent="1" source="ldsSTnJfSurYdlAkaAct-4" target="UxqbFNiShDq20qU9HtJH-4" edge="1">
          <mxGeometry width="50" height="50" relative="1" as="geometry">
            <mxPoint x="820" y="260" as="sourcePoint" />
            <mxPoint x="922" y="260" as="targetPoint" />
          </mxGeometry>
        </mxCell>
        <mxCell id="UxqbFNiShDq20qU9HtJH-12" value="" style="endArrow=classic;html=1;rounded=0;exitX=1;exitY=0.5;exitDx=0;exitDy=0;entryX=0;entryY=0.5;entryDx=0;entryDy=0;jumpStyle=gap;" parent="1" target="UxqbFNiShDq20qU9HtJH-4" edge="1">
          <mxGeometry width="50" height="50" relative="1" as="geometry">
            <mxPoint x="757.5" y="409.5" as="sourcePoint" />
            <mxPoint x="859.5" y="320.5" as="targetPoint" />
          </mxGeometry>
        </mxCell>
        <mxCell id="UxqbFNiShDq20qU9HtJH-13" value="" style="endArrow=classic;html=1;rounded=0;exitX=1;exitY=0.5;exitDx=0;exitDy=0;entryX=0;entryY=0.5;entryDx=0;entryDy=0;jumpStyle=gap;" parent="1" source="ldsSTnJfSurYdlAkaAct-5" target="UxqbFNiShDq20qU9HtJH-5" edge="1">
          <mxGeometry width="50" height="50" relative="1" as="geometry">
            <mxPoint x="800" y="300" as="sourcePoint" />
            <mxPoint x="902" y="331" as="targetPoint" />
            <Array as="points">
              <mxPoint x="860" y="345" />
            </Array>
          </mxGeometry>
        </mxCell>
        <mxCell id="5TuFJVPnhp5oFoQEhm-v-2" value="fact_last_month" style="rounded=1;whiteSpace=wrap;html=1;fillColor=light-dark(#ffffff, #281d00);strokeColor=#d6b656;fontSize=10;gradientColor=#ffd966;" vertex="1" parent="1">
          <mxGeometry x="859.5" y="286" width="139" height="30" as="geometry" />
        </mxCell>
        <mxCell id="5TuFJVPnhp5oFoQEhm-v-4" value="" style="endArrow=classic;html=1;rounded=0;exitX=1;exitY=0.5;exitDx=0;exitDy=0;entryX=0;entryY=0.5;entryDx=0;entryDy=0;jumpStyle=gap;" edge="1" parent="1" source="ldsSTnJfSurYdlAkaAct-4" target="5TuFJVPnhp5oFoQEhm-v-2">
          <mxGeometry width="50" height="50" relative="1" as="geometry">
            <mxPoint x="800" y="270" as="sourcePoint" />
            <mxPoint x="902" y="280" as="targetPoint" />
          </mxGeometry>
        </mxCell>
        <mxCell id="5TuFJVPnhp5oFoQEhm-v-5" value="" style="endArrow=classic;html=1;rounded=0;exitX=1;exitY=0.5;exitDx=0;exitDy=0;entryX=0;entryY=0.5;entryDx=0;entryDy=0;jumpStyle=gap;" edge="1" parent="1" source="ldsSTnJfSurYdlAkaAct-7" target="UxqbFNiShDq20qU9HtJH-5">
          <mxGeometry width="50" height="50" relative="1" as="geometry">
            <mxPoint x="790" y="320" as="sourcePoint" />
            <mxPoint x="892" y="376" as="targetPoint" />
          </mxGeometry>
        </mxCell>
        <mxCell id="5TuFJVPnhp5oFoQEhm-v-6" value="" style="endArrow=classic;html=1;rounded=0;exitX=1;exitY=0.5;exitDx=0;exitDy=0;entryX=0;entryY=0.5;entryDx=0;entryDy=0;jumpStyle=gap;" edge="1" parent="1" source="ldsSTnJfSurYdlAkaAct-7" target="5TuFJVPnhp5oFoQEhm-v-2">
          <mxGeometry width="50" height="50" relative="1" as="geometry">
            <mxPoint x="820" y="460" as="sourcePoint" />
            <mxPoint x="922" y="400" as="targetPoint" />
          </mxGeometry>
        </mxCell>
        <mxCell id="5TuFJVPnhp5oFoQEhm-v-7" value="dim_wbs" style="rounded=1;whiteSpace=wrap;html=1;fillColor=light-dark(#ffffff, #281d00);strokeColor=#d6b656;fontSize=10;gradientColor=#ffd966;" vertex="1" parent="1">
          <mxGeometry x="859.5" y="390" width="139" height="30" as="geometry" />
        </mxCell>
        <mxCell id="5TuFJVPnhp5oFoQEhm-v-9" value="" style="endArrow=classic;html=1;rounded=0;exitX=1;exitY=0.5;exitDx=0;exitDy=0;entryX=0;entryY=0.5;entryDx=0;entryDy=0;jumpStyle=gap;" edge="1" parent="1" source="ldsSTnJfSurYdlAkaAct-5">
          <mxGeometry width="50" height="50" relative="1" as="geometry">
            <mxPoint x="735.5000000000002" y="310" as="sourcePoint" />
            <mxPoint x="859.5" y="405" as="targetPoint" />
            <Array as="points">
              <mxPoint x="859.5" y="405" />
            </Array>
          </mxGeometry>
        </mxCell>
      </root>
    </mxGraphModel>
  </diagram>
</mxfile>
